<svg width="22" height="24" viewBox="0 0 22 24" fill="none" xmlns="http://www.w3.org/2000/svg">
<path d="M18.2093 0.990524H4.41501C3.50039 0.990524 2.62323 1.35386 1.9765 2.00059C1.32976 2.64732 0.966431 3.52448 0.966431 4.4391V18.2334C0.96843 18.9449 1.19045 19.6384 1.60205 20.2187C2.01365 20.7991 2.59468 21.2379 3.26548 21.4751V22.8315C3.26548 23.1364 3.38659 23.4288 3.60217 23.6444C3.81775 23.8599 4.11014 23.9811 4.41501 23.9811C4.71988 23.9811 5.01227 23.8599 5.22785 23.6444C5.44342 23.4288 5.56454 23.1364 5.56454 22.8315V21.682H17.0598V22.8315C17.0598 23.1364 17.1809 23.4288 17.3965 23.6444C17.6121 23.8599 17.9044 23.9811 18.2093 23.9811C18.5142 23.9811 18.8066 23.8599 19.0222 23.6444C19.2377 23.4288 19.3588 23.1364 19.3588 22.8315V21.4751C20.0297 21.2379 20.6107 20.7991 21.0223 20.2187C21.4339 19.6384 21.6559 18.9449 21.6579 18.2334V4.4391C21.6579 3.52448 21.2946 2.64732 20.6478 2.00059C20.0011 1.35386 19.1239 0.990524 18.2093 0.990524ZM3.26548 7.88768H10.1626V12.4858H3.26548V7.88768ZM19.3588 18.2334C19.3588 18.5383 19.2377 18.8307 19.0222 19.0463C18.8066 19.2618 18.5142 19.3829 18.2093 19.3829H4.41501C4.11014 19.3829 3.81775 19.2618 3.60217 19.0463C3.38659 18.8307 3.26548 18.5383 3.26548 18.2334V14.7848H19.3588V18.2334ZM19.3588 12.4858H12.4617V7.88768H19.3588V12.4858ZM19.3588 5.58863H3.26548V4.4391C3.26548 4.13423 3.38659 3.84184 3.60217 3.62627C3.81775 3.41069 4.11014 3.28958 4.41501 3.28958H18.2093C18.5142 3.28958 18.8066 3.41069 19.0222 3.62627C19.2377 3.84184 19.3588 4.13423 19.3588 4.4391V5.58863ZM15.4735 18.1415C15.6116 18.2004 15.7601 18.2316 15.9103 18.2334C16.2151 18.2334 16.5075 18.1123 16.7231 17.8967C16.9387 17.6812 17.0598 17.3888 17.0598 17.0839C17.0654 17.0074 17.0654 16.9305 17.0598 16.854C17.0472 16.782 17.024 16.7122 16.9908 16.6471C16.9657 16.5738 16.9309 16.5042 16.8874 16.4402C16.8449 16.3799 16.7989 16.3224 16.7494 16.2677L16.577 16.1298C16.5129 16.0863 16.4433 16.0515 16.3701 16.0263C16.2992 15.9829 16.2215 15.9518 16.1402 15.9344C15.9537 15.8954 15.7606 15.9034 15.578 15.9575C15.3954 16.0117 15.2291 16.1104 15.0941 16.2447C15.0447 16.2994 14.9986 16.3569 14.9562 16.4172C14.9127 16.4812 14.8779 16.5508 14.8527 16.6241C14.8196 16.6892 14.7963 16.759 14.7837 16.831C14.7781 16.9075 14.7781 16.9844 14.7837 17.0609C14.785 17.3625 14.9047 17.6515 15.1171 17.8656C15.2165 17.9801 15.3376 18.0739 15.4735 18.1415ZM6.27724 18.1415C6.41544 18.2004 6.56384 18.2316 6.71406 18.2334C7.01893 18.2334 7.31132 18.1123 7.5269 17.8967C7.74248 17.6812 7.86359 17.3888 7.86359 17.0839C7.86923 17.0074 7.86923 16.9305 7.86359 16.854C7.85101 16.782 7.82776 16.7122 7.79462 16.6471C7.76945 16.5738 7.73466 16.5042 7.69116 16.4402C7.64872 16.3799 7.60265 16.3224 7.55322 16.2677L7.38079 16.1298L7.17387 16.0263L6.94397 15.9344C6.75754 15.8954 6.56435 15.9034 6.38176 15.9575C6.19917 16.0117 6.0329 16.1104 5.8979 16.2447C5.84846 16.2994 5.8024 16.3569 5.75995 16.4172C5.71645 16.4812 5.68166 16.5508 5.6565 16.6241C5.62335 16.6892 5.60011 16.759 5.58753 16.831C5.58188 16.9075 5.58188 16.9844 5.58753 17.0609C5.5888 17.3625 5.70852 17.6515 5.92089 17.8656C6.02031 17.9801 6.14142 18.0739 6.27724 18.1415Z" fill="#807D86"/>
</svg>
