<svg width="23" height="29" viewBox="0 0 23 29" fill="none" xmlns="http://www.w3.org/2000/svg">
<path d="M22.2032 26.5294L18.1585 19.1644C19.3055 18.9833 20.1506 17.957 20.1506 16.81V5.94354C20.1506 3.04587 17.7962 0.691483 14.8985 0.691483H8.0164C5.11869 0.691483 2.70393 3.04587 2.70393 6.00395V16.81C2.70393 18.0174 3.54909 18.9833 4.69611 19.1644L0.711748 26.5294C0.409903 27.1331 0.59101 27.8575 1.1947 28.1594C1.37581 28.2801 1.55691 28.2801 1.73802 28.2801C2.1606 28.2801 2.58319 28.0386 2.7643 27.6764L3.12651 27.0727H19.7884L20.1505 27.6764C20.3921 28.099 20.7542 28.2801 21.1769 28.2801C21.3579 28.2801 21.539 28.2198 21.7202 28.1594C22.3239 27.8575 22.505 27.1331 22.2032 26.5294ZM16.5284 21.0962H6.38644L7.41271 19.2248H15.5022L16.5284 21.0962ZM16.3474 17.0515C15.3815 17.0515 14.5966 16.2667 14.5966 15.3007C14.5966 14.3348 15.3814 13.55 16.3474 13.55C17.3132 13.55 18.0981 14.3348 18.0981 15.3007C18.098 16.2063 17.3132 17.0515 16.3474 17.0515ZM4.81684 6.66801C4.81684 4.79657 6.32607 3.28735 8.13714 3.28735H14.7174C16.5284 3.28735 18.098 4.79657 18.098 6.66801V9.56572C18.098 10.2298 17.5547 10.7127 16.8907 10.7127H6.02422C5.36016 10.7127 4.87721 10.1694 4.87721 9.56572L4.81684 6.66801ZM6.56755 13.4897C7.53345 13.4897 8.31825 14.2745 8.31825 15.2405C8.31825 16.2063 7.53345 16.9912 6.56755 16.9912C5.60164 16.9912 4.81684 16.2064 4.81684 15.2405C4.81684 14.2745 5.60169 13.4897 6.56755 13.4897ZM4.09246 25.2617L5.42058 22.9073H17.4944L18.8225 25.2617H4.09246Z" fill="#807D86"/>
</svg>
