<svg xmlns="http://www.w3.org/2000/svg" width="15.983" height="21.199" viewBox="0 0 15.983 21.199">
  <path id="Path_10757" data-name="Path 10757" d="M116.251,18.326a5.189,5.189,0,1,1-5.189,5.189A5.189,5.189,0,0,1,116.251,18.326Zm0,21.2a10.779,10.779,0,0,1-7.553-3.084,1.524,1.524,0,0,1-.4-1.456l.3-1.212a4.628,4.628,0,0,1,4.517-3.568h6.278a4.627,4.627,0,0,1,4.517,3.568l.288,1.249a1.526,1.526,0,0,1-.409,1.438A10.779,10.779,0,0,1,116.251,39.525Z" transform="translate(-108.252 -18.326)" fill="#f8932d"/>
</svg>
